# xmcd CD database file
#
# Track frame offsets:
#	150
#	8612
#	38587
#	71971
#	90042
#	118506
#	150487
#	181099
#	212949
#
# Disc length: 3132 seconds
#
# Revision: 0
# Processed by: cddbd v1.5.2PL0 Copyright (c) Steve Scherf et al.
# Submitted via: CDex 1.51
#
DISCID=630c3a09
DTITLE=Taj Mahal Trio - 22. Juli 2006 Quasimodo Berlin (1|2)
DYEAR=2006
DGENRE=Blues
TTITLE0=Taj Mahal Trio - Let's Go
TTITLE1=Taj Mahal Trio - Changed My Way Of Living
TTITLE2=Taj Mahal Trio - Checkin' Up On My Baby
TTITLE3=Taj Mahal Trio - Blues With A Feeling
TTITLE4=Taj Mahal Trio - Mississippi Big Butt Blues
TTITLE5=Taj Mahal Trio - Oh You Blues
TTITLE6=Taj Mahal Trio - Sansibar
TTITLE7=Taj Mahal Trio - Little Brown Dog
TTITLE8=Taj Mahal Trio - My Creole Belle
EXTD=YEAR: 2006
EXTT0=
EXTT1=
EXTT2=
EXTT3=
EXTT4=
EXTT5=
EXTT6=
EXTT7=
EXTT8=
PLAYORDER=
